<svg width="40" height="40" viewBox="0 0 40 40" fill="none" xmlns="http://www.w3.org/2000/svg">
<path d="M12.9815 9.00583C13.8822 8.98911 14.7816 9.08145 15.6601 9.28083C16.3997 9.44232 17.102 9.74282 17.7295 10.1663C18.309 10.5875 18.7676 11.1537 19.0591 11.8081C19.3942 12.6128 19.5558 13.4791 19.5335 14.3505C19.5716 15.3073 19.3272 16.2542 18.8309 17.0731C18.3087 17.8465 17.587 18.4642 16.7422 18.8606C17.8886 19.1697 18.8872 19.8776 19.5583 20.8571C20.2025 21.895 20.5263 23.0998 20.4892 24.3208C20.5104 25.2943 20.3091 26.2598 19.9007 27.1438C19.5231 27.9148 18.9702 28.5868 18.2864 29.1059C17.5823 29.6193 16.79 29.9991 15.9488 30.2266C15.0765 30.4679 14.1754 30.5891 13.2703 30.5868H3.33301V9.00583H12.9815ZM12.4082 17.7345C13.1158 17.7636 13.8124 17.5518 14.3841 17.1336C14.6578 16.8899 14.8708 16.5855 15.0059 16.2448C15.141 15.9041 15.1946 15.5365 15.1623 15.1714C15.1806 14.745 15.0957 14.3205 14.9148 13.9339C14.7614 13.6261 14.5227 13.3689 14.2273 13.1928C13.9281 12.9989 13.5919 12.8692 13.24 12.8119C12.8582 12.7379 12.4697 12.7043 12.0809 12.7115H7.83483V17.7537H12.4082V17.7345ZM12.6557 26.9224C13.0836 26.9282 13.5107 26.882 13.9276 26.7849C14.3085 26.7007 14.6698 26.5444 14.9918 26.3242C15.3073 26.1042 15.5622 25.8082 15.733 25.4635C15.9309 25.024 16.0219 24.5438 15.9983 24.0623C16.0413 23.6236 15.9831 23.1808 15.8285 22.768C15.6738 22.3552 15.4266 21.9833 15.106 21.6808C14.4263 21.1802 13.5933 20.9322 12.7505 20.9795H7.83483V26.9224H12.6557Z" fill="#E3E7F2"/>
<path d="M26.9009 26.8427C27.2542 27.1702 27.6704 27.4225 28.1243 27.5842C28.5781 27.7458 29.0601 27.8136 29.5409 27.7832C30.3031 27.8025 31.0506 27.5706 31.6681 27.1232C32.1704 26.7966 32.5508 26.3132 32.7502 25.7482H36.3404C35.9579 27.3567 35.0237 28.7803 33.7003 29.7715C32.4308 30.6142 30.9305 31.0409 29.4075 30.9925C28.3205 31.0068 27.2418 30.8025 26.2353 30.3916C25.3249 30.012 24.5084 29.438 23.8428 28.71C23.1797 27.9471 22.6703 27.0633 22.3427 26.1071C21.9748 25.0383 21.7948 23.9139 21.8105 22.7836C21.8038 21.6724 21.9899 20.5684 22.3605 19.5207C22.8584 18.0469 23.8105 16.7686 25.08 15.8694C26.3495 14.9702 27.8712 14.4963 29.4268 14.5156C30.5752 14.4916 31.7109 14.7604 32.7268 15.2966C33.6451 15.8002 34.4373 16.5054 35.0437 17.3592C35.6641 18.2551 36.1088 19.2606 36.3541 20.3224C36.6232 21.4625 36.7192 22.6366 36.6388 23.8053H25.9452C25.8586 24.9033 26.2011 25.9921 26.9009 26.8427V26.8427ZM31.5924 18.6352C31.2932 18.3359 30.9333 18.1042 30.5369 17.9557C30.1406 17.8072 29.717 17.7454 29.2948 17.7744C28.7346 17.7531 28.1784 17.8772 27.6805 18.1347C27.2857 18.352 26.9373 18.6444 26.6547 18.9955C26.4043 19.3246 26.2178 19.6977 26.1047 20.0955C26.0028 20.4272 25.9392 20.7695 25.915 21.1157H32.5384C32.4807 20.2133 32.152 19.3492 31.5952 18.6366L31.5924 18.6352Z" fill="#E3E7F2"/>
<path d="M33.3612 10.4468H25.0615V12.5684H33.3612V10.4468Z" fill="#E3E7F2"/>
</svg>
