<svg width="40" height="40" viewBox="0 0 40 40" fill="none" xmlns="http://www.w3.org/2000/svg">
<g clip-path="url(#clip0_2484_3612)">
<path d="M22.6953 39.9219H16.2897C15.2197 39.9219 14.3494 39.0515 14.3494 37.9816V23.5333H10.6122C9.54224 23.5333 8.67188 22.6627 8.67188 21.593V15.4019C8.67188 14.332 9.54224 13.4616 10.6122 13.4616H14.3494V10.3613C14.3494 7.28729 15.3146 4.67194 17.1405 2.79846C18.9746 0.916443 21.5378 -0.078125 24.5529 -0.078125L29.4382 -0.0701905C30.5063 -0.0683594 31.3751 0.802002 31.3751 1.87012V7.61841C31.3751 8.68836 30.5051 9.55872 29.4354 9.55872L26.1462 9.55994C25.1431 9.55994 24.8877 9.76105 24.8331 9.82269C24.743 9.92493 24.6359 10.2139 24.6359 11.012V13.4613H29.1882C29.5309 13.4613 29.863 13.5458 30.1483 13.7051C30.7639 14.0491 31.1465 14.6994 31.1465 15.4022L31.1441 21.5933C31.1441 22.6627 30.2737 23.533 29.2038 23.533H24.6359V37.9816C24.6359 39.0515 23.7653 39.9219 22.6953 39.9219ZM16.6943 37.5769H22.2907V22.4835C22.2907 21.7691 22.872 21.1881 23.5861 21.1881H28.7991L28.8013 15.8066H23.5858C22.8717 15.8066 22.2907 15.2255 22.2907 14.5111V11.012C22.2907 10.0958 22.3837 9.05396 23.0753 8.27087C23.9108 7.32422 25.2277 7.21497 26.1456 7.21497L29.0302 7.21375V2.27417L24.5511 2.26685C19.7055 2.26685 16.6943 5.36865 16.6943 10.3613V14.5111C16.6943 15.2252 16.1133 15.8066 15.3992 15.8066H11.0168V21.1881H15.3992C16.1133 21.1881 16.6943 21.7691 16.6943 22.4835V37.5769Z" fill="#E3E7F2"/>
</g>
<defs>
<clipPath id="clip0_2484_3612">
<rect width="39.9219" height="40" fill="white" transform="translate(0.0390625)"/>
</clipPath>
</defs>
</svg>
