<svg width="43" height="50" viewBox="0 0 43 50" fill="none" xmlns="http://www.w3.org/2000/svg">
<path d="M11.4968 49.9915C7.82178 49.9944 4.18839 49.9974 0.554986 50C0.000545979 50.0004 -0.00249625 49.9996 0.000327567 49.4495C0.0348782 42.7225 0.0711353 35.9954 0.105399 29.2683C0.132243 23.9985 0.15807 18.7287 0.181575 13.4589C0.186082 12.4484 0.175364 11.4379 0.177611 10.4275C0.177969 10.2672 0.177611 10.0989 0.177611 9.88701C0.562932 10.1498 1.04895 10.4103 1.42647 10.6772C6.84971 14.5118 12.2719 18.3479 17.6942 22.1838C19.9921 23.8094 22.2934 25.4301 24.5831 27.0673C24.9059 27.2981 25.1269 27.3276 25.4343 27.0342C26.0859 26.4123 26.7824 25.8379 27.4482 25.2305C27.8334 24.8791 27.8126 24.7332 27.3825 24.4259C20.3876 19.4286 13.3925 14.4316 6.39713 9.43493C4.4227 8.02462 2.44979 6.61214 0.469194 5.21053C0.238073 5.04697 0.151679 4.86543 0.153863 4.58766C0.164434 3.2422 0.157311 1.8966 0.158114 0.55105C0.158441 0.00281054 0.160348 -0.000628771 0.755616 3.41728e-05C8.90996 0.00910848 17.0643 0.020032 25.2186 0.0281842C26.4791 0.0294453 27.7425 -0.0161942 28.9742 0.334507C33.6535 1.66685 36.8544 4.58324 38.4716 9.19875C39.0721 10.9127 39.2679 12.6907 39.1276 14.4816C38.8683 17.7914 37.569 20.6573 35.2302 23.035C35.0971 23.1704 34.9323 23.2848 34.8581 23.5143C35.3602 23.9969 35.9137 24.431 36.4864 24.8406C39.3572 26.8939 41.2985 29.606 42.2001 33.0232C42.7482 35.1008 42.7999 37.2121 42.3634 39.3228C41.5748 43.1369 39.5084 46.1068 36.319 48.2916C35.4201 48.9074 34.4415 49.4175 33.4066 49.7961C33.0984 49.9089 32.7825 49.9141 32.4635 49.9144C29.4542 49.9173 26.4444 49.8873 23.4356 49.9302C19.4698 49.9868 15.5041 49.9633 11.4968 49.9915ZM19.1105 45.1139C23.1183 45.1144 27.1261 45.1152 31.134 45.1149C31.2584 45.1149 31.3889 45.1265 31.5063 45.0947C32.7876 44.7475 33.9349 44.1438 34.8762 43.2032C35.9635 42.1167 36.6796 40.7867 37.2418 39.3713C37.5879 38.4999 37.7438 37.5784 37.7473 36.6497C37.753 35.1331 37.3811 33.6868 36.7551 32.3086C36.3327 31.3788 35.8128 30.4955 35.0071 29.8572C34.1391 29.1696 33.1986 28.5741 32.2989 27.9258C32.0787 27.7671 31.9278 27.7728 31.7249 27.9597C31.113 28.523 30.483 29.0667 29.8587 29.6165C27.4551 31.7332 25.051 33.8492 22.647 35.9654C19.9412 38.3473 17.2352 40.7289 14.5298 43.1111C13.8262 43.7306 13.1243 44.3519 12.4216 44.9724C12.4301 45.0195 12.4387 45.0666 12.4472 45.1138C14.6406 45.1138 16.8339 45.1138 19.1105 45.1139ZM18.0996 11.6938C22.1141 14.6128 26.131 17.5286 30.1384 20.4573C30.4206 20.6635 30.6018 20.6414 30.8615 20.4371C31.6655 19.805 32.3228 19.0538 32.9017 18.2099C34.0561 16.5269 34.6288 14.7114 34.455 12.6516C34.2466 10.1801 33.26 8.10827 31.3736 6.50984C29.9462 5.30036 28.3448 4.57922 26.3785 4.59541C20.6526 4.64255 14.9259 4.5802 9.19952 4.5638C9.02794 4.56331 8.79619 4.49909 8.7239 4.7132C8.6566 4.91255 8.88013 4.98357 9.00521 5.07476C12.0188 7.27203 15.0354 9.46518 18.0996 11.6938ZM15.2244 26.2293C11.9381 23.9076 8.65176 21.5859 5.36542 19.2642C5.30521 19.2918 5.24501 19.3193 5.1848 19.3469C5.18152 27.8671 5.07445 36.3868 5.12595 44.9266C5.41242 44.8783 5.52532 44.7066 5.66662 44.5813C8.08356 42.4382 10.4988 40.2932 12.9131 38.1472C15.5762 35.7802 18.239 33.413 20.8993 31.0429C21.3786 30.6159 21.3698 30.5741 20.8422 30.2011C18.9857 28.8888 17.1296 27.5761 15.2244 26.2293Z" fill="#E3E7F2"/>
</svg>
