<svg width="896" height="1062" viewBox="0 0 896 1062" fill="none" xmlns="http://www.w3.org/2000/svg">
<path d="M244.192 1061.82C166.135 1061.88 88.9613 1061.94 11.7879 1062C0.0115957 1062.01 -0.0530203 1061.99 0.00695752 1050.31C0.740812 907.425 1.51091 764.542 2.23867 621.658C2.80883 509.728 3.35742 397.797 3.85665 285.866C3.95238 264.405 3.72472 242.942 3.77245 221.479C3.78006 218.074 3.77245 214.5 3.77245 210C11.9567 215.581 22.2797 221.115 30.2982 226.784C145.488 308.231 260.655 389.71 375.824 471.184C424.631 505.712 473.512 540.136 522.144 574.909C529.001 579.811 533.696 580.438 540.225 574.206C554.064 560.997 568.859 548.797 583 535.896C591.182 528.431 590.739 525.333 581.604 518.806C433.032 412.664 284.456 306.528 135.875 200.398C93.9381 170.443 52.0335 140.442 9.96567 110.672C5.05667 107.198 3.22166 103.342 3.26804 97.4419C3.49258 68.8642 3.34129 40.2837 3.35833 11.7043C3.36529 0.0596952 3.4058 -0.0133551 16.0493 0.000725833C189.247 0.193464 362.446 0.425479 535.644 0.598633C562.417 0.625419 589.25 -0.343965 615.411 7.10493C714.799 35.404 782.787 97.3479 817.136 195.381C829.891 231.786 834.051 269.55 831.071 307.589C825.562 377.888 797.965 438.762 748.289 489.264C745.461 492.139 741.962 494.57 740.386 499.444C751.05 509.695 762.808 518.915 774.972 527.615C835.947 571.226 877.181 628.832 896.33 701.414C907.971 745.54 909.069 790.384 899.799 835.216C883.048 916.229 839.158 979.308 771.416 1025.71C752.323 1038.79 731.537 1049.63 709.556 1057.67C703.01 1060.06 696.301 1060.18 689.525 1060.18C625.607 1060.24 561.678 1059.61 497.772 1060.52C413.539 1061.72 329.306 1061.22 244.192 1061.82ZM405.907 958.218C491.033 958.231 576.159 958.246 661.285 958.24C663.928 958.239 666.7 958.487 669.193 957.811C696.409 950.436 720.778 937.614 740.77 917.636C763.865 894.558 779.074 866.309 791.015 836.245C798.366 817.737 801.679 798.165 801.753 778.439C801.874 746.228 793.974 715.507 780.677 686.234C771.707 666.485 760.664 647.724 743.55 634.167C725.114 619.563 705.138 606.915 686.028 593.143C681.351 589.772 678.147 589.894 673.836 593.863C660.84 605.829 647.459 617.377 634.199 629.055C583.146 674.012 532.083 718.957 481.022 763.906C423.552 814.497 366.077 865.082 308.612 915.68C293.669 928.838 278.76 942.034 263.835 955.213C264.016 956.214 264.197 957.215 264.378 958.216C310.965 958.216 357.552 958.216 405.907 958.218ZM384.435 248.377C469.704 310.375 555.022 372.307 640.14 434.513C646.133 438.893 649.982 438.422 655.499 434.085C672.575 420.657 686.537 404.704 698.831 386.779C723.351 351.031 735.515 312.471 731.825 268.719C727.397 216.226 706.442 172.22 666.374 138.269C636.057 112.58 602.044 97.2626 560.279 97.6065C438.662 98.6078 317.026 97.2835 195.398 96.935C191.753 96.9246 186.831 95.5607 185.296 100.108C183.866 104.343 188.614 105.851 191.271 107.788C255.279 154.458 319.351 201.04 384.435 248.377ZM323.367 557.11C253.565 507.797 183.763 458.485 113.962 409.173C112.683 409.758 111.404 410.343 110.125 410.928C110.055 591.897 107.781 772.857 108.875 954.242C114.96 953.216 117.358 949.567 120.359 946.906C171.695 901.388 222.994 855.828 274.275 810.247C330.838 759.972 387.396 709.692 443.901 659.351C454.081 650.281 453.895 649.394 442.688 641.471C403.257 613.598 363.832 585.716 323.367 557.11Z" fill="#E3E7F2" fill-opacity="0.04"/>
</svg>
