<svg width="40" height="40" viewBox="0 0 40 40" fill="none" xmlns="http://www.w3.org/2000/svg">
<g clip-path="url(#clip0_2484_3614)">
<path d="M20.2417 32.5C26.0283 32.5 23.965 28.8367 24.4117 27.7833C24.405 26.9967 24.3983 26.24 24.425 25.78C24.7917 25.8833 25.6567 26.3217 27.4433 28.0583C30.2017 30.8417 30.9067 32.5 33.135 32.5H37.2367C38.5367 32.5 39.2133 31.9617 39.5517 31.51C39.8783 31.0733 40.1983 30.3067 39.8483 29.1133C38.9333 26.24 33.5967 21.2783 33.265 20.755C33.315 20.6583 33.395 20.53 33.4367 20.4633H33.4333C34.4867 19.0717 38.5067 13.0483 39.0983 10.6383C39.1 10.635 39.1017 10.63 39.1017 10.625C39.4217 9.525 39.1283 8.81167 38.825 8.40833C38.3683 7.805 37.6417 7.5 36.66 7.5H32.5583C31.185 7.5 30.1433 8.19167 29.6167 9.45333C28.735 11.695 26.2583 16.305 24.4017 17.9367C24.345 15.625 24.3833 13.86 24.4133 12.5483C24.4733 9.99 24.6667 7.5 22.0117 7.5H15.565C13.9017 7.5 12.31 9.31667 14.0333 11.4733C15.54 13.3633 14.575 14.4167 14.9 19.66C13.6333 18.3017 11.38 14.6333 9.78667 9.945C9.34 8.67667 8.66333 7.50167 6.75833 7.50167H2.65667C0.993333 7.50167 0 8.40833 0 9.92667C0 13.3367 7.54833 32.5 20.2417 32.5ZM6.75833 10.0017C7.12 10.0017 7.15667 10.0017 7.425 10.7633C9.05667 15.5683 12.7167 22.6783 15.39 22.6783C17.3983 22.6783 17.3983 20.62 17.3983 19.845L17.3967 13.675C17.2867 11.6333 16.5433 10.6167 16.055 10L21.9017 10.0067C21.905 10.035 21.8683 16.8317 21.9183 18.4783C21.9183 20.8167 23.775 22.1567 26.6733 19.2233C29.7317 15.7717 31.8467 10.6117 31.9317 10.4017C32.0567 10.1017 32.165 10 32.5583 10H36.66H36.6767C36.675 10.005 36.675 10.01 36.6733 10.015C36.2983 11.765 32.5967 17.3417 31.3583 19.0733C31.3383 19.1 31.32 19.1283 31.3017 19.1567C30.7567 20.0467 30.3133 21.03 31.3767 22.4133C31.4733 22.53 31.7267 22.8033 32.0933 23.1833C33.2333 24.36 37.1433 28.3833 37.49 29.9833C37.26 30.02 37.01 29.9933 33.135 30.0017C32.31 30.0017 31.665 28.7683 29.2033 26.285C26.99 24.1317 25.5533 23.2517 24.245 23.2517C21.705 23.2517 21.89 25.3133 21.9133 27.8067C21.9217 30.51 21.905 29.655 21.9233 29.825C21.775 29.8833 21.35 30 20.2417 30C9.66667 30 2.78 13.215 2.515 10.0067C2.60667 9.99833 3.86833 10.0033 6.75833 10.0017Z" fill="#E3E7F2"/>
</g>
<defs>
<clipPath id="clip0_2484_3614">
<rect width="40" height="40" fill="white"/>
</clipPath>
</defs>
</svg>
